<?xml version="1.0" encoding="utf-8"?>
<!-- Generator: Adobe Illustrator 16.0.0, SVG Export Plug-In . SVG Version: 6.00 Build 0)  -->
<!DOCTYPE svg PUBLIC "-//W3C//DTD SVG 1.1//EN" "http://www.w3.org/Graphics/SVG/1.1/DTD/svg11.dtd">
<svg version="1.1" id="Layer_1" xmlns="http://www.w3.org/2000/svg" xmlns:xlink="http://www.w3.org/1999/xlink" x="0px" y="0px"
	 width="512px" height="512px" viewBox="0 0 512 512" enable-background="new 0 0 512 512" xml:space="preserve">
<path fill="#FFFFFF" d="M256,50C142.412,50,50,142.411,50,256c0,113.588,92.412,206,206,206s206-92.412,206-206
	C462,142.411,369.588,50,256,50z M360.612,144.596c-26.316-25.9-60.111-42.386-102.111-43.987V58.515
	c54,1.08,98.262,21.788,132.834,54.932L360.612,144.596z M258.5,159.413c25,1.01,44.841,10.436,61.095,25.345L258.5,245.851V159.413
	z M249.5,253.5h-90.087c2.151-50,44.087-91.936,90.087-94.087V253.5z M249.5,262.5v90.087c-46-2.151-87.936-44.087-90.087-90.087
	H249.5z M258.5,262.5h94.087c-2.151,46-44.087,87.936-94.087,90.087V262.5z M326.388,178.816
	c-17.78-16.426-38.888-26.789-67.888-27.811v-41.988c37,1.595,70.951,17.143,95.741,41.52L326.388,178.816z M249.5,151.005
	c-50,2.162-96.334,48.495-98.495,102.495H108.91c1.123-79,65.59-143.467,140.59-144.589V151.005z M151.005,262.5
	c2.161,50,48.495,96.332,98.495,98.495v37.891c-75-1.104-137.196-61.386-140.482-136.386H151.005z M258.5,360.995
	c54-2.163,100.332-48.495,102.495-98.495h37.783c-3.228,71-65.278,133.052-140.278,136.277V360.995z M249.5,58.515v41.987
	c-80,1.125-147.873,68.998-148.998,152.998H58.516C60.739,144.5,144.5,60.738,249.5,58.515z M58.516,262.5h42.094
	c3.295,80,68.891,143.689,148.891,144.794v46.191C144.5,451.26,60.739,367.5,58.516,262.5z M258.5,453.485v-46.3
	c79-3.238,145.447-69.687,148.688-144.687h46.299C451.26,367.5,367.5,451.26,258.5,453.485z"/>
</svg>
